<svg width="104" height="104" viewBox="0 0 104 104" fill="none" xmlns="http://www.w3.org/2000/svg">
<path d="M93.3567 26.452L94.0588 26.4717L93.3567 26.452ZM92.0846 79.4897L91.581 79.9794L91.581 79.9794L92.0846 79.4897ZM91.8861 78.9803L92.5882 79L91.8861 78.9803ZM93.3124 78.2326L92.6103 78.2129C92.6043 78.4246 92.6943 78.6277 92.855 78.7657C93.0158 78.9036 93.2302 78.9616 93.4386 78.9236L93.3124 78.2326ZM94.7392 27.2702L94.9363 26.596C94.7273 26.5349 94.5018 26.5742 94.3258 26.7023C94.1498 26.8304 94.0431 27.0329 94.037 27.2506L94.7392 27.2702ZM68.4748 20.6097L69.0588 21V21L68.4748 20.6097ZM63.147 28.5833V29.2857C63.3816 29.2857 63.6007 29.1686 63.7311 28.9735L63.147 28.5833ZM89.1697 78.2976V79C89.4544 79 89.711 78.8281 89.8193 78.5647C89.9276 78.3013 89.8662 77.9986 89.6638 77.7983L89.1697 78.2976ZM69.4343 21.7024V21C69.1997 21 68.9806 21.1171 68.8502 21.3122L69.4343 21.7024ZM64.1065 29.676L63.5225 29.2857V29.2857L64.1065 29.676ZM94.0588 25.0668C93.2982 25.0668 92.6758 25.6721 92.6545 26.4324L94.0588 26.4717V25.0668ZM98.4049 29.2363C98.4049 26.8514 96.3725 25.0668 94.0588 25.0668V26.4717C95.6849 26.4717 97 27.7126 97 29.2363H98.4049ZM98.4049 74.853V29.2363H97V74.853H98.4049ZM92.5882 80.4049C95.7159 80.4049 98.4049 78.0018 98.4049 74.853H97C97 77.1419 95.0268 79 92.5882 79V80.4049ZM91.581 79.9794C91.8455 80.2514 92.2088 80.4049 92.5882 80.4049V79V79L91.581 79.9794ZM91.1839 78.9607C91.1733 79.34 91.3165 79.7074 91.581 79.9794L92.5882 79V79L91.1839 78.9607ZM92.6545 26.4324L91.1839 78.9607L92.5882 79L94.0588 26.4717L92.6545 26.4324ZM94.0146 78.2522L95.4413 27.2899L94.037 27.2506L92.6103 78.2129L94.0146 78.2522ZM95.5951 74.853C95.5951 76.1205 94.6156 77.2807 93.1863 77.5415L93.4386 78.9236C95.4664 78.5535 97 76.8669 97 74.853H95.5951ZM95.5951 29.2363V74.853H97V29.2363H95.5951ZM94.5421 27.9444C95.1963 28.1357 95.5951 28.6867 95.5951 29.2363H97C97 28.0017 96.1288 26.9447 94.9363 26.596L94.5421 27.9444ZM69.0588 19.5951C68.5896 19.5951 68.1514 19.8294 67.8907 20.2195L69.0588 21V21V19.5951ZM85.6678 19.5951H69.0588V21H85.6678V19.5951ZM89.8409 23.7619C89.8409 21.4583 87.9686 19.5951 85.6678 19.5951V21C87.1959 21 88.436 22.2374 88.436 23.7619H89.8409ZM89.8409 74.8571V23.7619H88.436V74.8571H89.8409ZM92.5882 77.5951C91.0678 77.5951 89.8409 76.3666 89.8409 74.8571H88.436C88.436 77.1453 90.2947 79 92.5882 79V77.5951ZM93.9931 79C93.9931 78.2241 93.3641 77.5951 92.5882 77.5951V79H93.9931ZM92.5882 80.4049C93.3641 80.4049 93.9931 79.7759 93.9931 79H92.5882V80.4049ZM28.9204 80.4049H92.5882V79H28.9204V80.4049ZM20.5951 72.0952C20.5951 76.6868 24.3245 80.4049 28.9204 80.4049V79C25.0975 79 22 75.908 22 72.0952H20.5951ZM20.5951 32.0476V72.0952H22V32.0476H20.5951ZM24.7682 27.8808C22.4673 27.8808 20.5951 29.7441 20.5951 32.0476H22C22 30.5231 23.24 29.2857 24.7682 29.2857V27.8808ZM63.147 27.8808H24.7682V29.2857H63.147V27.8808ZM67.8907 20.2195L62.563 28.193L63.7311 28.9735L69.0588 21L67.8907 20.2195ZM87.0311 74.8571C87.0311 76.3982 87.6611 77.7928 88.6755 78.7968L89.6638 77.7983C88.9047 77.047 88.436 76.0076 88.436 74.8571H87.0311ZM87.0311 23.7619V74.8571H88.436V23.7619H87.0311ZM85.6678 22.4049C86.4228 22.4049 87.0311 23.0161 87.0311 23.7619H88.436C88.436 22.2375 87.196 21 85.6678 21V22.4049ZM69.4343 22.4049H85.6678V21H69.4343V22.4049ZM64.6906 30.0662L70.0183 22.0927L68.8502 21.3122L63.5225 29.2857L64.6906 30.0662ZM63.5225 30.6906C63.9917 30.6906 64.4299 30.4564 64.6906 30.0662L63.5225 29.2857V29.2857V30.6906ZM24.7682 30.6906H63.5225V29.2857H24.7682V30.6906ZM23.4049 32.0476C23.4049 31.3018 24.0132 30.6906 24.7682 30.6906V29.2857C23.24 29.2857 22 30.5232 22 32.0476H23.4049ZM23.4049 72.0952V32.0476H22V72.0952H23.4049ZM28.9204 77.5951C25.8707 77.5951 23.4049 75.1294 23.4049 72.0952H22C22 75.908 25.0975 79 28.9204 79V77.5951ZM89.1697 77.5951H28.9204V79H89.1697V77.5951Z" fill="#62E0D9"/>
<path fill-rule="evenodd" clip-rule="evenodd" d="M48.2805 47.561V50.7621C48.2805 51.823 49.1215 52.6829 50.1591 52.6829H53.2899M55.7946 52.6829V52.4633C55.7946 51.784 55.531 51.1322 55.0614 50.652L50.2668 45.7504C49.7965 45.2702 49.1597 45 48.4953 45H34.5047C33.1215 45 32 46.1467 32 47.561V74.451C32 75.8653 33.1215 77.0119 34.5047 77.0119H53.2899C54.6731 77.0119 55.7946 75.8653 55.7946 74.451V65.4876" fill="#62E0D9"/>
<path d="M52.9507 56.8838L52.6638 57.1645L52.6638 57.1645L52.9507 56.8838ZM56.7078 60.7253L56.4208 61.0059L56.4208 61.0059L56.7078 60.7253ZM56.7078 61.2866L56.4208 61.0059L56.4208 61.0059L56.7078 61.2866ZM44.8105 73.4511L45.0974 73.7318L45.0974 73.7318L44.8105 73.4511ZM40.4795 69.0484L40.1925 68.7677L40.1925 68.7677L40.4795 69.0484ZM52.3768 56.8838L52.6638 57.1645L52.6638 57.1645L52.3768 56.8838ZM41.1678 72.7691H40.7664C40.7664 72.9907 40.9462 73.1705 41.1678 73.1705V72.7691ZM41.1678 69.4927L40.8809 69.212C40.8075 69.287 40.7664 69.3878 40.7664 69.4927H41.1678ZM44.3546 72.7691V73.1705C44.4626 73.1705 44.5661 73.1269 44.6416 73.0497L44.3546 72.7691ZM55.8593 61.0059L56.1463 61.2866C56.2989 61.1306 56.2989 60.8813 56.1463 60.7253L55.8593 61.0059ZM52.6638 57.7386L52.9507 57.4579C52.8752 57.3807 52.7718 57.3372 52.6638 57.3372C52.5558 57.3372 52.4523 57.3807 52.3768 57.4579L52.6638 57.7386ZM56.9357 55.5259L57.2227 55.2452V55.2452L56.9357 55.5259ZM53.7049 55.5259L53.9919 55.8065L53.7049 55.5259ZM58.0359 56.6508L57.7489 56.9314L58.0359 56.6508ZM58.0359 59.9286L57.7489 59.648L58.0359 59.9286ZM56.7078 61.2866L56.4208 61.0059V61.0059L56.7078 61.2866ZM56.1338 61.2866L56.4208 61.0059L56.4208 61.0059L56.1338 61.2866ZM52.3768 57.4451L52.6638 57.1645V57.1645L52.3768 57.4451ZM52.3768 56.8838L52.0898 56.6032V56.6032L52.3768 56.8838ZM54.2788 56.0872L54.5658 56.3679L54.2788 56.0872ZM56.3618 56.0872L56.0748 56.3679V56.3679L56.3618 56.0872ZM53.2252 57.1645L52.9383 56.8838C52.7857 57.0398 52.7857 57.2891 52.9383 57.4451L53.2252 57.1645ZM56.4208 60.4319L56.1338 60.7125C56.2094 60.7897 56.3128 60.8332 56.4208 60.8332C56.5288 60.8332 56.6323 60.7897 56.7078 60.7125L56.4208 60.4319ZM57.462 59.3673L57.7489 59.648L57.462 59.3673ZM57.462 57.2121L57.7489 56.9314V56.9314L57.462 57.2121ZM53.2377 56.6032C53.0867 56.4487 52.8798 56.3617 52.6638 56.3617V57.1645L52.6638 57.1645L53.2377 56.6032ZM56.9947 60.4446L53.2377 56.6032L52.6638 57.1645L56.4208 61.0059L56.9947 60.4446ZM56.9947 61.5672C57.2999 61.2552 57.2999 60.7566 56.9947 60.4446L56.4208 61.0059V61.0059L56.9947 61.5672ZM45.0974 73.7318L56.9947 61.5672L56.4208 61.0059L44.5235 73.1705L45.0974 73.7318ZM44.5235 73.9732C44.7395 73.9732 44.9464 73.8862 45.0974 73.7318L44.5235 73.1705H44.5235V73.9732ZM40.7664 73.9732H44.5235V73.1705H40.7664V73.9732ZM39.9637 73.1705C39.9637 73.6138 40.3231 73.9732 40.7664 73.9732V73.1705H39.9637ZM39.9637 69.329V73.1705H40.7664V69.329H39.9637ZM40.1925 68.7677C40.0458 68.9177 39.9637 69.1192 39.9637 69.329H40.7664H40.7664L40.1925 68.7677ZM52.0898 56.6032L40.1925 68.7677L40.7664 69.329L52.6638 57.1645L52.0898 56.6032ZM52.6638 56.3617C52.4478 56.3617 52.2409 56.4487 52.0898 56.6032L52.6638 57.1645L52.6638 57.1645V56.3617ZM41.5692 72.7691V69.4927H40.7664V72.7691H41.5692ZM44.3546 72.3677H41.1678V73.1705H44.3546V72.3677ZM55.5724 60.7253L44.0677 72.4884L44.6416 73.0497L56.1463 61.2866L55.5724 60.7253ZM52.3768 58.0192L55.5724 61.2866L56.1463 60.7253L52.9507 57.4579L52.3768 58.0192ZM41.4548 69.7733L52.9507 58.0192L52.3768 57.4579L40.8809 69.212L41.4548 69.7733ZM57.2227 55.2452C56.1739 54.1729 54.4667 54.1729 53.4179 55.2452L53.9919 55.8065C54.7258 55.0562 55.9149 55.0562 56.6487 55.8065L57.2227 55.2452ZM58.3228 56.3701L57.2227 55.2452L56.6487 55.8065L57.7489 56.9314L58.3228 56.3701ZM58.3228 60.2093C59.3619 59.1469 59.3619 57.4325 58.3228 56.3701L57.7489 56.9314C58.4828 57.6818 58.4828 58.8976 57.7489 59.648L58.3228 60.2093ZM56.9947 61.5672L58.3228 60.2093L57.7489 59.648L56.4208 61.0059L56.9947 61.5672ZM56.4208 61.8087C56.6368 61.8087 56.8437 61.7217 56.9947 61.5672L56.4208 61.0059L56.4208 61.0059V61.8087ZM55.8469 61.5672C55.9979 61.7217 56.2048 61.8087 56.4208 61.8087V61.0059V61.0059L55.8469 61.5672ZM52.0898 57.7258L55.8469 61.5672L56.4208 61.0059L52.6638 57.1645L52.0898 57.7258ZM52.0898 56.6032C51.7847 56.9152 51.7847 57.4138 52.0898 57.7258L52.6638 57.1645V57.1645L52.0898 56.6032ZM53.4179 55.2452L52.0898 56.6032L52.6638 57.1645L53.9919 55.8065L53.4179 55.2452ZM54.5658 56.3679C54.9848 55.9395 55.6558 55.9395 56.0748 56.3679L56.6487 55.8065C55.9149 55.0562 54.7258 55.0562 53.9919 55.8065L54.5658 56.3679ZM53.5122 57.4451L54.5658 56.3679L53.9919 55.8065L52.9383 56.8838L53.5122 57.4451ZM56.7078 60.1512L53.5122 56.8838L52.9383 57.4451L56.1338 60.7125L56.7078 60.1512ZM57.175 59.0867L56.1338 60.1512L56.7078 60.7125L57.7489 59.648L57.175 59.0867ZM57.175 57.4928C57.6037 57.9311 57.6037 58.6483 57.175 59.0867L57.7489 59.648C58.4828 58.8976 58.4828 57.6818 57.7489 56.9314L57.175 57.4928ZM56.0748 56.3679L57.175 57.4928L57.7489 56.9314L56.6487 55.8065L56.0748 56.3679Z" fill="white"/>
<path d="M37.0094 57.002C36.566 57.002 36.2066 57.3614 36.2066 57.8048H37.0094V57.002ZM49.5329 57.002H37.0094V57.8048H49.5329V57.002ZM50.3357 57.8048C50.3357 57.3614 49.9763 57.002 49.5329 57.002V57.8048H50.3357ZM49.5329 58.6076C49.9763 58.6076 50.3357 58.2482 50.3357 57.8048H49.5329V58.6076ZM37.0094 58.6076H49.5329V57.8048H37.0094V58.6076ZM36.2066 57.8048C36.2066 58.2482 36.566 58.6076 37.0094 58.6076V57.8048H36.2066ZM37.0094 60.8435C36.566 60.8435 36.2066 61.2029 36.2066 61.6462H37.0094V60.8435ZM48.2805 60.8435H37.0094V61.6462H48.2805V60.8435ZM49.0833 61.6462C49.0833 61.2029 48.7239 60.8435 48.2805 60.8435V61.6462H49.0833ZM48.2805 62.449C48.7239 62.449 49.0833 62.0896 49.0833 61.6462H48.2805V62.449ZM37.0094 62.449H48.2805V61.6462H37.0094V62.449ZM36.2066 61.6462C36.2066 62.0896 36.566 62.449 37.0094 62.449V61.6462H36.2066ZM37.0094 64.6849C36.566 64.6849 36.2066 65.0443 36.2066 65.4877H37.0094V64.6849ZM44.5235 64.6849H37.0094V65.4877H44.5235V64.6849ZM45.3263 65.4877C45.3263 65.0443 44.9669 64.6849 44.5235 64.6849V65.4877H45.3263ZM44.5235 66.2905C44.9669 66.2905 45.3263 65.931 45.3263 65.4877H44.5235V66.2905ZM37.0094 66.2905H44.5235V65.4877H37.0094V66.2905ZM36.2066 65.4877C36.2066 65.931 36.566 66.2905 37.0094 66.2905V65.4877H36.2066Z" fill="white"/>
<path fill-rule="evenodd" clip-rule="evenodd" d="M39.3668 79.4321C39.3668 81.4044 37.7563 83.0041 35.7705 83.0041H10.5963C8.61055 83.0041 7 81.4044 7 79.4321V61.572C7 59.5997 8.61055 58 10.5963 58H35.7705C37.7563 58 39.3668 59.5997 39.3668 61.572V79.4321ZM17.7889 64.5487C17.7889 66.1924 16.4469 67.5254 14.792 67.5254C13.1371 67.5254 11.7951 66.1924 11.7951 64.5487C11.7951 62.905 13.1371 61.572 14.792 61.572C16.4469 61.572 17.7889 62.905 17.7889 64.5487Z" fill="#62E0D9"/>
<path d="M33.7863 78.6556L26.7373 71.2009L23.8002 74.307L19.6883 69.9585L11.4644 78.6556" stroke="white" stroke-width="0.65" stroke-linecap="round" stroke-linejoin="round"/>
</svg>
